# xmcd CD database file
#
# Track frame offsets:
#	150
#	11997
#	26234
#	37565
#	54331
#	68550
#	83455
#	96831
#	106972
#	120723
#	134679
#	148352
#	161432
#	175328
#	194453
#	206266
#	219784
#	232824
#	246672
#	259787
#
# Disc length: 3622 seconds
#
# Revision: 1
# Processed by: cddbd v1.5.1PL0 Copyright (c) Steve Scherf et al.
# Submitted via: CDex 1.51
#
DISCID=140e2414
DTITLE=Louis Armstrong - The Essential - Volume 3
DYEAR=2003
DGENRE=Jazz
TTITLE0=Jubilee
TTITLE1=Public Melody Number One
TTITLE2=Love Walked In
TTITLE3=Wrap Your Troubles in Dreams
TTITLE4=Red Cap
TTITLE5=She's the Daughter of a Planter from Havana
TTITLE6=Struttin' With Some Barbeque
TTITLE7=As Long as You Live, You'll be Dead if You Die
TTITLE8=A Kiss to Build a Dream On
TTITLE9=That Lucky Old Sun
TTITLE10=Do You Know What it Means to Miss New Orleans?
TTITLE11=Before Long
TTITLE12=I Want a Little Girl
TTITLE13=Snafu
TTITLE14=Coquette
TTITLE15=You Rascal You
TTITLE16=Long, Long Ago
TTITLE17=Perdido Street Blues
TTITLE18=Blueberry Hill
TTITLE19=It Takes Time
EXTD=YEAR: 2003
EXTT0=
EXTT1=
EXTT2=
EXTT3=
EXTT4=
EXTT5=
EXTT6=
EXTT7=
EXTT8=
EXTT9=
EXTT10=
EXTT11=
EXTT12=
EXTT13=
EXTT14=
EXTT15=
EXTT16=
EXTT17=
EXTT18=
EXTT19=
PLAYORDER=
